<?xml version="1.0" encoding="UTF-8" standalone="no" ?>
<!DOCTYPE svg PUBLIC "-//W3C//DTD SVG 1.1//EN" "http://www.w3.org/Graphics/SVG/1.1/DTD/svg11.dtd">
<svg xmlns="http://www.w3.org/2000/svg" xmlns:xlink="http://www.w3.org/1999/xlink" version="1.1" width="400" height="400" viewBox="0 0 400 400" xml:space="preserve">
<desc>Created with Fabric.js 3.6.2</desc>
<defs>
</defs>
<g transform="matrix(0.39 0 0 0.39 200 200)"  >
<path style="stroke: none; stroke-width: 1; stroke-dasharray: none; stroke-linecap: butt; stroke-dashoffset: 0; stroke-linejoin: miter; stroke-miterlimit: 4; fill: rgb(0,0,0); fill-rule: evenodd; opacity: 1;"  transform=" translate(-256, -256)" d="M 256 512 C 114.615 512 0 397.385 0 256 C 0 114.615 114.615 0 256 0 C 397.385 0 512 114.615 512 256 C 512 397.385 397.385 512 256 512 Z M 376.711 133.683 C 369.273 139.549 352.195 148.067 343.773 148.067 C 343.773 148.067 343.773 148.077 343.773 148.086 C 334.156 135.721 320.617 128 305.602 128 C 276.437 128 252.789 157.106 252.789 192.99 C 252.789 197.972 253.257 202.837 254.125 207.5 L 254.117 207.5 C 214.554 206.221 171.288 181.817 145.242 140.048 C 129.226 174.164 143.085 212.106 161.258 225.933 C 155.039 226.51 143.586 225.048 138.195 218.577 C 137.836 241.221 146.68 271.221 178.937 282.106 C 172.727 286.22 161.726 285.038 156.946 284.164 C 158.624 303.279 180.375 328.27 204.156 328.27 C 195.68 340.336 163.789 362.221 128 355.26 C 152.305 373.462 180.633 384 210.617 384 C 295.82 384 361.992 299.01 358.43 194.163 C 358.414 194.047 358.414 193.933 358.406 193.808 C 358.414 193.539 358.43 193.269 358.43 192.99 C 358.43 192.664 358.406 192.355 358.398 192.039 C 366.156 185.509 376.562 173.961 384 158.759 C 379.687 161.682 366.75 167.538 354.711 168.991 C 362.438 163.855 373.882 147.048 376.711 133.683 Z" stroke-linecap="round" />
</g>
</svg>